M48
;Layer_Color=9474304
;FILE_FORMAT=2:4
INCH
;TYPE=PLATED
T1F00S00C0.0120
T2F00S00C0.0250
%
T01
X001010Y001920
X001600Y001840
X002295Y001982
X002710Y001980
X002840Y001500
X002820Y002530
X002910Y003150
X002850Y003910
X002560Y003790
X002510Y004220
X002530Y004630
X002080Y004360
X002085Y005230
X001415
X001060Y005220
X000980Y004870
X000539Y005136
X000290Y004820
X000600Y003757
X001630Y003330
X001410Y005770
X001010
X002090
X002590
T02
X000250Y000400
Y001400
Y002400
Y003400
Y004400
Y005400
X003250
Y004400
Y003400
Y002400
Y001400
Y000400
X002000Y000750
Y001250
X001500
Y000750
X000250Y006400
Y007400
X003250
Y006400
M30
