%FSLAX24Y24*%
%MOIN*%
G70*
G01*
G75*
G04 Layer_Color=16711935*
%ADD10O,0.0240X0.1500*%
%ADD11C,0.0071*%
%ADD12C,0.0060*%
%ADD13C,0.0087*%
%ADD14R,0.1378X0.0315*%
%ADD15R,0.0630X0.0315*%
%ADD16R,0.0180X0.0190*%
%ADD17R,0.0190X0.0180*%
%ADD18C,0.0050*%
%ADD19C,0.0060*%
%ADD20C,0.0070*%
%ADD21C,0.0100*%
%ADD22C,0.0400*%
%ADD23C,0.0240*%
%ADD24R,0.0433X0.0472*%
%ADD25C,0.0120*%
%ADD26C,0.0200*%
%ADD27C,0.0079*%
%ADD28C,0.0040*%
%ADD29R,0.0150X0.0620*%
%ADD30R,0.0550X0.0130*%
%ADD31R,0.0160X0.0300*%
%ADD32R,0.0500X0.0160*%
%ADD33R,0.0699X0.0310*%
%ADD34C,0.0127*%
%ADD35C,0.0116*%
%ADD36C,0.0127*%
%ADD37R,0.1438X0.0375*%
%ADD38R,0.0240X0.0250*%
%ADD39R,0.0250X0.0240*%
%ADD40C,0.0460*%
%ADD41R,0.0493X0.0170*%
%ADD42R,0.0140X0.0529*%
%ADD43R,0.0200X0.0400*%
%ADD44R,0.0500X0.0200*%
%ADD45R,0.0493X0.0532*%
D38*
X1440Y3835D02*
D03*
Y4245D02*
D03*
X2840Y4115D02*
D03*
Y4525D02*
D03*
D39*
X1695Y2130D02*
D03*
X2105D02*
D03*
X2605Y4960D02*
D03*
X3015D02*
D03*
X1825Y3850D02*
D03*
X2235D02*
D03*
D40*
X250Y7400D02*
D03*
Y6400D02*
D03*
Y5400D02*
D03*
Y4400D02*
D03*
Y3400D02*
D03*
Y2400D02*
D03*
Y1400D02*
D03*
Y400D02*
D03*
X1500Y1250D02*
D03*
X2000D02*
D03*
X1500Y750D02*
D03*
X2000D02*
D03*
X3250Y400D02*
D03*
Y1400D02*
D03*
Y2400D02*
D03*
Y3400D02*
D03*
Y4400D02*
D03*
Y5400D02*
D03*
Y6400D02*
D03*
Y7400D02*
D03*
D41*
X1617Y3125D02*
D03*
D42*
X1440Y3304D02*
D03*
D43*
X250Y5900D02*
D03*
X3250Y2900D02*
D03*
X250Y900D02*
D03*
D44*
X1750Y200D02*
D03*
D45*
X2166Y2635D02*
D03*
X1614D02*
D03*
X2166Y3305D02*
D03*
M02*
