%FSLAX24Y24*%
%MOIN*%
G70*
G01*
G75*
G04 Layer_Physical_Order=2*
G04 Layer_Color=16711680*
%ADD10O,0.0240X0.1500*%
%ADD11C,0.0071*%
%ADD12C,0.0060*%
%ADD13C,0.0087*%
%ADD14R,0.1378X0.0315*%
%ADD15R,0.0630X0.0315*%
%ADD16R,0.0180X0.0190*%
%ADD17R,0.0190X0.0180*%
%ADD18C,0.0050*%
%ADD19C,0.0060*%
%ADD20C,0.0070*%
%ADD21C,0.0100*%
%ADD22C,0.0400*%
%ADD23C,0.0240*%
%ADD24R,0.0433X0.0472*%
%ADD25C,0.0120*%
%ADD26C,0.0200*%
G36*
X3014Y5294D02*
X3066Y5216D01*
X3151Y5160D01*
X3250Y5140D01*
X3350Y5160D01*
X3356Y5164D01*
X3400Y5141D01*
Y4659D01*
X3356Y4636D01*
X3350Y4640D01*
X3250Y4660D01*
X3151Y4640D01*
X3066Y4584D01*
X3033Y4534D01*
X2985Y4549D01*
Y4675D01*
X2890D01*
Y4525D01*
Y4375D01*
X2985Y4375D01*
X2985D01*
X2995D01*
X3009Y4304D01*
X2977Y4265D01*
X2977D01*
X2977Y4265D01*
X2695D01*
Y4265D01*
X2679D01*
X2675Y4288D01*
X2636Y4346D01*
X2578Y4385D01*
X2510Y4398D01*
X2442Y4385D01*
X2384Y4346D01*
X2345Y4288D01*
X2332Y4220D01*
X2336Y4200D01*
X2304Y4162D01*
X2280D01*
X2280Y4162D01*
X2249Y4155D01*
X2222Y4138D01*
X2222Y4138D01*
X2177Y4093D01*
X2160Y4066D01*
X2153Y4035D01*
X2153Y4035D01*
Y3995D01*
X2085D01*
Y3705D01*
D01*
X2085Y3705D01*
X2093Y3677D01*
X2087Y3669D01*
X2081Y3638D01*
X2081Y3638D01*
Y3596D01*
X1894D01*
D01*
D01*
X1894Y3596D01*
X1886Y3596D01*
Y3596D01*
X1664D01*
Y3305D01*
X1614D01*
Y3255D01*
X1343D01*
Y3013D01*
X1345D01*
Y2927D01*
X1343D01*
Y2344D01*
X1545D01*
Y2183D01*
Y1985D01*
X1845D01*
Y2275D01*
X1772D01*
Y2344D01*
X1886D01*
Y2344D01*
X1886D01*
X1886Y2344D01*
X1894D01*
Y2344D01*
X1989D01*
X2024Y2309D01*
Y2275D01*
X1955D01*
Y2180D01*
X2055D01*
Y2294D01*
X2039Y2310D01*
Y2344D01*
X2116D01*
Y2635D01*
X2166D01*
Y2685D01*
X2437D01*
Y2895D01*
X2468Y2901D01*
X2494Y2919D01*
X2598Y3022D01*
X2615Y3049D01*
X2622Y3080D01*
X2622Y3080D01*
Y3624D01*
X2628Y3625D01*
X2686Y3664D01*
X2725Y3722D01*
X2727Y3732D01*
X2773Y3751D01*
X2782Y3745D01*
X2850Y3732D01*
X2918Y3745D01*
X2976Y3784D01*
X3015Y3842D01*
X3028Y3910D01*
X3015Y3978D01*
X2985Y4023D01*
Y4251D01*
X3020Y4262D01*
X3033Y4266D01*
X3066Y4216D01*
X3151Y4160D01*
X3168Y4156D01*
Y3854D01*
X2852Y3538D01*
X2835Y3511D01*
X2828Y3480D01*
X2828Y3480D01*
Y3306D01*
X2784Y3276D01*
X2745Y3218D01*
X2732Y3150D01*
X2745Y3082D01*
X2784Y3024D01*
X2842Y2985D01*
X2910Y2972D01*
X2978Y2985D01*
X3036Y3024D01*
X3075Y3082D01*
X3088Y3150D01*
X3127Y3176D01*
X3151Y3160D01*
X3250Y3140D01*
X3350Y3160D01*
X3356Y3164D01*
X3400Y3141D01*
Y2659D01*
X3356Y2636D01*
X3350Y2640D01*
X3250Y2660D01*
X3151Y2640D01*
X3066Y2584D01*
X3010Y2500D01*
X2990Y2400D01*
X3010Y2300D01*
X3066Y2216D01*
X3151Y2160D01*
X3250Y2140D01*
X3350Y2160D01*
X3356Y2164D01*
X3400Y2141D01*
Y1659D01*
X3356Y1636D01*
X3350Y1640D01*
X3250Y1660D01*
X3151Y1640D01*
X3066Y1584D01*
X3010Y1499D01*
X2990Y1400D01*
X3010Y1301D01*
X3066Y1216D01*
X3151Y1160D01*
X3250Y1140D01*
X3350Y1160D01*
X3356Y1164D01*
X3400Y1141D01*
Y659D01*
X3356Y636D01*
X3350Y640D01*
X3250Y660D01*
X3151Y640D01*
X3066Y584D01*
X3010Y499D01*
X2990Y400D01*
X3010Y301D01*
X3066Y216D01*
X3151Y160D01*
X3201Y150D01*
X3196Y100D01*
X304D01*
X299Y150D01*
X349Y160D01*
X434Y216D01*
X490Y301D01*
X500Y350D01*
X250D01*
Y400D01*
X200D01*
Y650D01*
X150Y640D01*
X144Y636D01*
X100Y659D01*
Y1141D01*
X144Y1164D01*
X150Y1160D01*
X250Y1140D01*
X349Y1160D01*
X434Y1216D01*
X490Y1301D01*
X508Y1388D01*
X556Y1403D01*
X1069Y890D01*
Y630D01*
X1069Y630D01*
X1075Y598D01*
X1093Y572D01*
X1282Y382D01*
X1282Y382D01*
X1309Y365D01*
X1309Y365D01*
X1309Y365D01*
D01*
X1309Y365D01*
X1309Y365D01*
X1340Y358D01*
X1340Y358D01*
X1690D01*
X1690Y358D01*
X1721Y365D01*
X1748Y382D01*
X1885Y520D01*
X1901Y510D01*
X2000Y490D01*
X2100Y510D01*
X2184Y566D01*
X2240Y650D01*
X2260Y750D01*
X2240Y850D01*
X2184Y934D01*
X2122Y975D01*
Y1025D01*
X2184Y1066D01*
X2240Y1151D01*
X2260Y1250D01*
X2244Y1329D01*
X2719Y1803D01*
X2778Y1815D01*
X2836Y1854D01*
X2875Y1912D01*
X2888Y1980D01*
X2875Y2048D01*
X2836Y2106D01*
X2778Y2145D01*
X2710Y2158D01*
X2642Y2145D01*
X2584Y2106D01*
X2545Y2048D01*
X2532Y1980D01*
X2537Y1953D01*
X2079Y1494D01*
X2000Y1510D01*
X1921Y1494D01*
X1743Y1673D01*
X1705Y1698D01*
X1660Y1707D01*
X1389D01*
X1186Y1909D01*
X1188Y1920D01*
X1175Y1988D01*
X1136Y2046D01*
X1107Y2065D01*
Y3161D01*
X1205Y3260D01*
X1231Y3298D01*
X1231Y3298D01*
X1231Y3298D01*
X1240Y3343D01*
Y4060D01*
X1275Y4095D01*
X1295D01*
Y4095D01*
X1585D01*
Y4113D01*
X1950D01*
X1995Y4122D01*
X2033Y4147D01*
X2033Y4147D01*
X2033Y4147D01*
X2069Y4184D01*
X2080Y4182D01*
X2148Y4195D01*
X2206Y4234D01*
X2245Y4292D01*
X2258Y4360D01*
X2256Y4371D01*
X2323Y4437D01*
X2348Y4475D01*
X2357Y4520D01*
Y4761D01*
X2411Y4815D01*
X2455Y4815D01*
Y4815D01*
X2755D01*
Y5089D01*
X2965Y5299D01*
X3014Y5294D01*
D02*
G37*
G36*
X2803Y5469D02*
X2522Y5188D01*
X2497Y5150D01*
X2488Y5105D01*
X2455D01*
Y5077D01*
X2390D01*
X2345Y5068D01*
X2307Y5043D01*
X2157Y4893D01*
X2132Y4855D01*
X2123Y4810D01*
Y4569D01*
X2084Y4538D01*
X2080Y4538D01*
X2012Y4525D01*
X1954Y4486D01*
X1915Y4428D01*
X1902Y4360D01*
X1838Y4347D01*
X1585D01*
Y4395D01*
X1295D01*
Y4347D01*
X1220D01*
X1175Y4338D01*
X1137Y4313D01*
X1040Y4215D01*
X1014Y4177D01*
X1005Y4133D01*
Y3391D01*
X907Y3293D01*
X882Y3255D01*
X873Y3210D01*
Y2030D01*
X845Y1988D01*
X832Y1920D01*
X845Y1852D01*
X884Y1794D01*
X942Y1755D01*
X1010Y1742D01*
X1021Y1744D01*
X1257Y1507D01*
X1295Y1482D01*
X1295Y1482D01*
X1295Y1482D01*
D01*
X1295Y1482D01*
X1295Y1482D01*
X1340Y1473D01*
X1340D01*
X1316Y1434D01*
X1316Y1434D01*
X1316D01*
X1260Y1349D01*
X1250Y1300D01*
X1500D01*
Y1200D01*
X1250D01*
X1254Y1179D01*
X1210Y1155D01*
X732Y1634D01*
Y3346D01*
X858Y3472D01*
X875Y3499D01*
X882Y3530D01*
X882Y3530D01*
Y4680D01*
X882Y4680D01*
X875Y4711D01*
X858Y4738D01*
X858Y4738D01*
X734Y4862D01*
Y5023D01*
X734Y5023D01*
X727Y5054D01*
X720Y5065D01*
X710Y5081D01*
X710Y5081D01*
X707Y5083D01*
X717Y5136D01*
X704Y5204D01*
X665Y5262D01*
X607Y5301D01*
X539Y5314D01*
X535Y5314D01*
X500Y5349D01*
X510Y5400D01*
X490Y5500D01*
X434Y5584D01*
X349Y5640D01*
X250Y5660D01*
X150Y5640D01*
X144Y5636D01*
X100Y5659D01*
Y5990D01*
X468D01*
Y5880D01*
X468Y5880D01*
X475Y5849D01*
X492Y5822D01*
X937Y5378D01*
X934Y5346D01*
X895Y5288D01*
X882Y5220D01*
X895Y5152D01*
X934Y5094D01*
X992Y5055D01*
X1060Y5042D01*
X1128Y5055D01*
X1186Y5094D01*
X1225Y5152D01*
X1238Y5220D01*
X1225Y5288D01*
X1186Y5346D01*
X1140Y5377D01*
X1135Y5401D01*
X1118Y5428D01*
X632Y5914D01*
Y5990D01*
X2803D01*
Y5469D01*
D02*
G37*
%LPC*%
G36*
X1390Y3785D02*
X1295D01*
Y3685D01*
X1390D01*
Y3785D01*
D02*
G37*
G36*
X1564Y3596D02*
X1343D01*
Y3355D01*
X1564D01*
Y3596D01*
D02*
G37*
G36*
X1975Y3800D02*
X1875D01*
Y3705D01*
X1975D01*
Y3800D01*
D02*
G37*
G36*
X1775D02*
X1675D01*
Y3705D01*
X1775D01*
Y3800D01*
D02*
G37*
G36*
X1585Y3785D02*
X1490D01*
Y3685D01*
X1585D01*
Y3785D01*
D02*
G37*
G36*
X2055Y2080D02*
X1955D01*
Y1985D01*
X2055D01*
Y2080D01*
D02*
G37*
G36*
X300Y650D02*
Y450D01*
X500D01*
X490Y499D01*
X434Y584D01*
X349Y640D01*
X300Y650D01*
D02*
G37*
G36*
X2255Y2080D02*
X2155D01*
Y1985D01*
X2255D01*
Y2080D01*
D02*
G37*
G36*
X2437Y2585D02*
X2216D01*
Y2344D01*
X2437D01*
Y2585D01*
D02*
G37*
G36*
X2255Y2275D02*
X2155D01*
Y2180D01*
X2255D01*
Y2275D01*
D02*
G37*
G36*
X2965Y4910D02*
X2865D01*
Y4815D01*
X2965D01*
Y4910D01*
D02*
G37*
G36*
X2790Y4675D02*
X2695D01*
Y4575D01*
X2790D01*
Y4675D01*
D02*
G37*
G36*
X3165Y4910D02*
X3065D01*
Y4815D01*
X3165D01*
Y4910D01*
D02*
G37*
G36*
Y5105D02*
X3065D01*
Y5010D01*
X3165D01*
Y5105D01*
D02*
G37*
G36*
X2965D02*
X2865D01*
Y5010D01*
X2965D01*
Y5105D01*
D02*
G37*
G36*
X1585Y3985D02*
X1490D01*
Y3885D01*
X1585D01*
Y3985D01*
D02*
G37*
G36*
X1390D02*
X1295D01*
Y3885D01*
X1390D01*
Y3985D01*
D02*
G37*
G36*
X1775Y3995D02*
X1675D01*
Y3900D01*
X1775D01*
Y3995D01*
D02*
G37*
G36*
X2790Y4475D02*
X2695D01*
Y4375D01*
X2790D01*
Y4475D01*
D02*
G37*
G36*
X1975Y3995D02*
X1875D01*
Y3900D01*
X1975D01*
Y3995D01*
D02*
G37*
%LPD*%
D16*
X1440Y3835D02*
D03*
Y4245D02*
D03*
X2840Y4115D02*
D03*
Y4525D02*
D03*
D17*
X1695Y2130D02*
D03*
X2105D02*
D03*
X2605Y4960D02*
D03*
X3015D02*
D03*
X1825Y3850D02*
D03*
X2235D02*
D03*
D18*
X550Y5880D02*
Y6540D01*
X250Y6840D02*
X550Y6540D01*
X250Y6840D02*
Y7400D01*
Y5142D02*
X521Y4871D01*
Y4779D02*
Y4871D01*
Y4779D02*
X680Y4620D01*
X539Y5136D02*
X652Y5023D01*
Y4828D02*
Y5023D01*
Y4828D02*
X800Y4680D01*
X250Y5142D02*
Y5400D01*
X540Y1534D02*
X1150Y923D01*
Y630D02*
Y923D01*
Y630D02*
X1340Y440D01*
X540Y1534D02*
Y3530D01*
X1340Y440D02*
X1690D01*
X650Y1600D02*
X1500Y750D01*
X650Y1600D02*
Y3380D01*
X1611Y2916D02*
X1672Y2976D01*
X1611Y2639D02*
Y2916D01*
X1690Y2130D02*
Y2561D01*
X1672Y2976D02*
X2436D01*
X2360Y4080D02*
X2505Y4225D01*
X2436Y2976D02*
X2540Y3080D01*
Y3790D01*
X2910Y3480D02*
X3250Y3820D01*
Y4400D01*
X2910Y3150D02*
Y3480D01*
X1060Y5220D02*
Y5370D01*
X1690Y440D02*
X2000Y750D01*
X650Y3380D02*
X800Y3530D01*
X550Y5880D02*
X1060Y5370D01*
X800Y3530D02*
Y4680D01*
X290Y4820D02*
X575Y4535D01*
X2963Y4320D02*
X3036Y4205D01*
X400Y3670D02*
X540Y3530D01*
X400Y3670D02*
Y3897D01*
X575Y4072D01*
Y4535D01*
X600Y3757D02*
Y3929D01*
X680Y4009D01*
Y4620D01*
X2163Y3309D02*
Y3638D01*
X2235Y3710D01*
Y3850D01*
X2280Y4080D02*
X2360D01*
X2235Y4035D02*
X2280Y4080D01*
X2235Y3850D02*
Y4035D01*
D19*
X2840Y3940D02*
Y4115D01*
X2105Y2130D02*
X2147D01*
X2295Y1982D01*
D22*
X250Y7400D02*
D03*
Y6400D02*
D03*
Y5400D02*
D03*
Y4400D02*
D03*
Y3400D02*
D03*
Y2400D02*
D03*
Y1400D02*
D03*
Y400D02*
D03*
X1500Y1250D02*
D03*
X2000D02*
D03*
X1500Y750D02*
D03*
X2000D02*
D03*
X3250Y400D02*
D03*
Y1400D02*
D03*
Y2400D02*
D03*
Y3400D02*
D03*
Y4400D02*
D03*
Y5400D02*
D03*
Y6400D02*
D03*
Y7400D02*
D03*
D23*
X2090Y5770D02*
D03*
X2085Y5230D02*
D03*
X980Y4870D02*
D03*
X1415Y5230D02*
D03*
X539Y5136D02*
D03*
X2530Y4630D02*
D03*
X1630Y3330D02*
D03*
X2080Y4360D02*
D03*
X1600Y1840D02*
D03*
X2820Y2530D02*
D03*
X1010Y5770D02*
D03*
X2510Y4220D02*
D03*
X2910Y3150D02*
D03*
X600Y3757D02*
D03*
X1410Y5770D02*
D03*
X2840Y1500D02*
D03*
X1010Y1920D02*
D03*
X1060Y5220D02*
D03*
X290Y4820D02*
D03*
X2850Y3910D02*
D03*
X2590Y5770D02*
D03*
X2560Y3790D02*
D03*
X2295Y1982D02*
D03*
X2710Y1980D02*
D03*
D24*
X2166Y2635D02*
D03*
X1614D02*
D03*
X2166Y3305D02*
D03*
X1614Y3305D02*
D03*
D25*
X3250Y6950D02*
Y7400D01*
X1950Y4230D02*
X2080Y4360D01*
X2240Y4810D02*
X2390Y4960D01*
X2605D01*
X2240Y4520D02*
Y4810D01*
X2080Y4360D02*
X2240Y4520D01*
X2605Y4960D02*
Y5105D01*
X1660Y1590D02*
X2000Y1250D01*
X1340Y1590D02*
X1660D01*
X2605Y5105D02*
X2920Y5420D01*
Y6620D01*
X3250Y6950D01*
X2000Y1250D02*
X2720Y1970D01*
X1010Y1920D02*
X1340Y1590D01*
X1220Y4230D02*
X1950D01*
X990Y1920D02*
Y3210D01*
X1123Y3343D01*
Y4133D01*
X1220Y4230D01*
D26*
X1278Y1250D02*
X1500D01*
X1399Y1351D02*
X1500Y1250D01*
X1177Y1351D02*
X1399D01*
X1133Y1395D02*
X1177Y1351D01*
X1278Y1250D01*
M02*
