%FSLAX24Y24*%
%MOIN*%
G70*
G01*
G75*
G04 Layer_Color=32896*
%ADD10O,0.0240X0.1500*%
%ADD11C,0.0071*%
%ADD12C,0.0060*%
%ADD13C,0.0087*%
%ADD14R,0.1378X0.0315*%
%ADD15R,0.0630X0.0315*%
%ADD16R,0.0180X0.0190*%
%ADD17R,0.0190X0.0180*%
%ADD18C,0.0050*%
%ADD19C,0.0060*%
%ADD20C,0.0070*%
%ADD21C,0.0100*%
%ADD22C,0.0400*%
%ADD23C,0.0240*%
%ADD24R,0.0433X0.0472*%
%ADD25C,0.0120*%
%ADD26C,0.0200*%
%ADD27C,0.0079*%
%ADD28C,0.0040*%
%ADD29R,0.0150X0.0620*%
%ADD30R,0.0550X0.0130*%
%ADD31R,0.0160X0.0300*%
%ADD32R,0.0500X0.0160*%
%ADD33R,0.0699X0.0310*%
%ADD34C,0.0127*%
%ADD35C,0.0116*%
%ADD36C,0.0127*%
%ADD37R,0.1438X0.0375*%
%ADD38R,0.0240X0.0250*%
%ADD39R,0.0250X0.0240*%
%ADD40C,0.0460*%
%ADD41R,0.0493X0.0170*%
%ADD42R,0.0140X0.0529*%
%ADD43R,0.0200X0.0400*%
%ADD44R,0.0500X0.0200*%
%ADD45R,0.0493X0.0532*%
%ADD46R,0.0090X0.0470*%
%ADD47R,0.0430X0.0120*%
D18*
X1320Y3610D02*
X2460D01*
Y2330D02*
Y3610D01*
X1320Y2330D02*
Y3610D01*
Y2330D02*
X2460D01*
X1270Y2280D02*
X1450D01*
X1270D02*
Y2440D01*
X2842Y2900D02*
X2708Y2700D01*
Y2900D02*
X2842Y2700D01*
X2642D02*
X2575D01*
X2608D01*
Y2900D01*
X2642Y2867D01*
X1957Y1877D02*
X1990Y1910D01*
X2057D01*
X2090Y1877D01*
Y1743D01*
X2057Y1710D01*
X1990D01*
X1957Y1743D01*
X1890Y1710D02*
X1823D01*
X1857D01*
Y1910D01*
X1890Y1877D01*
X2212Y5003D02*
X2245Y5036D01*
X2312D01*
X2345Y5003D01*
Y4869D01*
X2312Y4836D01*
X2245D01*
X2212Y4869D01*
X2145D02*
X2112Y4836D01*
X2045D01*
X2012Y4869D01*
Y5003D01*
X2045Y5036D01*
X2112D01*
X2145Y5003D01*
Y4969D01*
X2112Y4936D01*
X2012D01*
X1467Y4627D02*
X1500Y4660D01*
X1567D01*
X1600Y4627D01*
Y4493D01*
X1567Y4460D01*
X1500D01*
X1467Y4493D01*
X1300Y4460D02*
Y4660D01*
X1400Y4560D01*
X1267D01*
X2882Y3737D02*
X2916Y3770D01*
X2982D01*
X3015Y3737D01*
Y3603D01*
X2982Y3570D01*
X2916D01*
X2882Y3603D01*
X2816Y3737D02*
X2782Y3770D01*
X2716D01*
X2682Y3737D01*
Y3703D01*
X2716Y3670D01*
X2749D01*
X2716D01*
X2682Y3637D01*
Y3603D01*
X2716Y3570D01*
X2782D01*
X2816Y3603D01*
X2097Y4217D02*
X2130Y4250D01*
X2197D01*
X2230Y4217D01*
Y4083D01*
X2197Y4050D01*
X2130D01*
X2097Y4083D01*
X1897Y4050D02*
X2030D01*
X1897Y4183D01*
Y4217D01*
X1930Y4250D01*
X1997D01*
X2030Y4217D01*
X2460Y5640D02*
X2327D01*
X2393D01*
Y5440D01*
X2260Y5573D02*
Y5473D01*
X2227Y5440D01*
X2127D01*
Y5407D01*
X2160Y5373D01*
X2193D01*
X2127Y5440D02*
Y5573D01*
X2060Y5373D02*
Y5573D01*
X1960D01*
X1927Y5540D01*
Y5473D01*
X1960Y5440D01*
X2060D01*
X1660Y5607D02*
X1627Y5640D01*
X1560D01*
X1527Y5607D01*
Y5573D01*
X1560Y5540D01*
X1594D01*
X1560D01*
X1527Y5507D01*
Y5473D01*
X1560Y5440D01*
X1627D01*
X1660Y5473D01*
X1460Y5440D02*
Y5473D01*
X1427D01*
Y5440D01*
X1460D01*
X1294Y5607D02*
X1260Y5640D01*
X1194D01*
X1160Y5607D01*
Y5573D01*
X1194Y5540D01*
X1227D01*
X1194D01*
X1160Y5507D01*
Y5473D01*
X1194Y5440D01*
X1260D01*
X1294Y5473D01*
X1094Y5640D02*
Y5507D01*
X1027Y5440D01*
X960Y5507D01*
Y5640D01*
X2628Y5950D02*
X2562D01*
X2595D01*
Y6150D01*
X2628Y6117D01*
X2462Y5950D02*
Y5983D01*
X2428D01*
Y5950D01*
X2462D01*
X2295Y6117D02*
X2262Y6150D01*
X2195D01*
X2162Y6117D01*
Y6083D01*
X2195Y6050D01*
X2162Y6017D01*
Y5983D01*
X2195Y5950D01*
X2262D01*
X2295Y5983D01*
Y6017D01*
X2262Y6050D01*
X2295Y6083D01*
Y6117D01*
X2262Y6050D02*
X2195D01*
X1862Y6117D02*
Y6083D01*
X1895D01*
X1829D01*
X1862D01*
Y5983D01*
X1829Y5950D01*
X1695D02*
X1629D01*
X1595Y5983D01*
Y6050D01*
X1629Y6083D01*
X1695D01*
X1729Y6050D01*
Y5983D01*
X1695Y5950D01*
X1329Y6117D02*
X1295Y6150D01*
X1229D01*
X1195Y6117D01*
Y6083D01*
X1229Y6050D01*
X1262D01*
X1229D01*
X1195Y6017D01*
Y5983D01*
X1229Y5950D01*
X1295D01*
X1329Y5983D01*
X1129Y5950D02*
Y5983D01*
X1095D01*
Y5950D01*
X1129D01*
X829Y6150D02*
X896Y6117D01*
X962Y6050D01*
Y5983D01*
X929Y5950D01*
X862D01*
X829Y5983D01*
Y6017D01*
X862Y6050D01*
X962D01*
X762Y6150D02*
Y6017D01*
X696Y5950D01*
X629Y6017D01*
Y6150D01*
X917Y457D02*
X950Y490D01*
X1017D01*
X1050Y457D01*
Y323D01*
X1017Y290D01*
X950D01*
X917Y323D01*
Y390D01*
X983D01*
X850Y290D02*
Y490D01*
X717Y290D01*
Y490D01*
X650D02*
Y290D01*
X550D01*
X517Y323D01*
Y457D01*
X550Y490D01*
X650D01*
X560Y7300D02*
X493D01*
X527D01*
Y7500D01*
X560Y7467D01*
X480Y857D02*
X447Y890D01*
X380D01*
X347Y857D01*
Y823D01*
X380Y790D01*
X347Y757D01*
Y723D01*
X380Y690D01*
X447D01*
X480Y723D01*
Y757D01*
X447Y790D01*
X480Y823D01*
Y857D01*
X447Y790D02*
X380D01*
X2990Y7320D02*
X2923D01*
X2957D01*
Y7520D01*
X2990Y7487D01*
X2690Y7520D02*
X2757Y7487D01*
X2823Y7420D01*
Y7353D01*
X2790Y7320D01*
X2723D01*
X2690Y7353D01*
Y7387D01*
X2723Y7420D01*
X2823D01*
X2970Y323D02*
X2937Y290D01*
X2870D01*
X2837Y323D01*
Y457D01*
X2870Y490D01*
X2937D01*
X2970Y457D01*
Y423D01*
X2937Y390D01*
X2837D01*
D19*
X2890Y6098D02*
Y6590D01*
X2822Y6030D02*
X2890Y6098D01*
Y6590D02*
X3250Y6950D01*
Y7040D01*
X2710Y6030D02*
X2822D01*
D28*
X1540Y1980D02*
Y2280D01*
X2260Y1980D02*
Y2280D01*
X2000D02*
X2260D01*
X1540D02*
X1800D01*
X2000Y1980D02*
X2260D01*
X1540D02*
X1800D01*
X2450Y4810D02*
Y5110D01*
X3170Y4810D02*
Y5110D01*
X2910D02*
X3170D01*
X2450D02*
X2710D01*
X2910Y4810D02*
X3170D01*
X2450D02*
X2710D01*
X1290Y4140D02*
Y4400D01*
Y3680D02*
Y3940D01*
X1590Y4140D02*
Y4400D01*
Y3680D02*
Y3940D01*
X1290Y3680D02*
X1590D01*
X1290Y4400D02*
X1590D01*
X2690Y3960D02*
X2990D01*
X2690Y4680D02*
X2990D01*
X2690Y4420D02*
Y4680D01*
X2690Y4220D02*
X2690Y3960D01*
X2990Y4420D02*
Y4680D01*
X2990Y4220D02*
X2990Y3960D01*
X1670Y3700D02*
Y4000D01*
X2390Y3700D02*
Y4000D01*
X2130D02*
X2390D01*
X1670D02*
X1930D01*
X2130Y3700D02*
X2390D01*
X1670D02*
X1930D01*
X840Y870D02*
Y770D01*
X765D01*
Y820D01*
Y770D01*
X690D01*
Y920D02*
Y970D01*
Y945D01*
X840D01*
Y920D01*
X690Y1045D02*
Y1095D01*
Y1070D01*
X790D01*
Y1045D01*
X640Y1170D02*
X790D01*
Y1245D01*
X765Y1270D01*
X715D01*
X690Y1245D01*
Y1170D01*
X815Y1345D02*
X790D01*
Y1320D01*
Y1370D01*
Y1345D01*
X715D01*
X690Y1370D01*
X790Y1445D02*
X690D01*
X740D01*
X765Y1470D01*
X790Y1495D01*
Y1520D01*
X690Y1620D02*
Y1670D01*
X715Y1695D01*
X765D01*
X790Y1670D01*
Y1620D01*
X765Y1595D01*
X715D01*
X690Y1620D01*
Y1745D02*
X790D01*
Y1820D01*
X765Y1845D01*
X690D01*
Y1895D02*
Y1945D01*
Y1920D01*
X790D01*
Y1895D01*
Y2120D02*
Y2045D01*
X765Y2020D01*
X715D01*
X690Y2045D01*
Y2120D01*
Y2170D02*
Y2245D01*
X715Y2270D01*
X740Y2245D01*
Y2195D01*
X765Y2170D01*
X790Y2195D01*
Y2270D01*
X690Y2519D02*
X740Y2469D01*
X790D01*
X840Y2519D01*
X815Y2694D02*
X840Y2669D01*
Y2619D01*
X815Y2594D01*
X715D01*
X690Y2619D01*
Y2669D01*
X715Y2694D01*
X690Y2744D02*
X740Y2794D01*
X790D01*
X840Y2744D01*
X690Y3119D02*
Y3019D01*
X790Y3119D01*
X815D01*
X840Y3094D01*
Y3044D01*
X815Y3019D01*
Y3169D02*
X840Y3194D01*
Y3244D01*
X815Y3269D01*
X715D01*
X690Y3244D01*
Y3194D01*
X715Y3169D01*
X815D01*
X690Y3319D02*
Y3369D01*
Y3344D01*
X840D01*
X815Y3319D01*
X690Y3519D02*
X840D01*
X765Y3444D01*
Y3544D01*
X665Y3619D02*
X690Y3644D01*
X715D01*
Y3619D01*
X690D01*
Y3644D01*
X665Y3619D01*
X640Y3594D01*
X690Y3994D02*
Y3894D01*
X790Y3994D01*
X815D01*
X840Y3969D01*
Y3919D01*
X815Y3894D01*
Y4044D02*
X840Y4069D01*
Y4119D01*
X815Y4144D01*
X715D01*
X690Y4119D01*
Y4069D01*
X715Y4044D01*
X815D01*
X690Y4194D02*
Y4244D01*
Y4219D01*
X840D01*
X815Y4194D01*
X840Y4419D02*
Y4319D01*
X765D01*
X790Y4369D01*
Y4394D01*
X765Y4419D01*
X715D01*
X690Y4394D01*
Y4344D01*
X715Y4319D01*
X1140Y2290D02*
Y2390D01*
X1115D01*
X1015Y2290D01*
X990D01*
Y2440D02*
X1090Y2540D01*
X990Y2590D02*
Y2640D01*
Y2615D01*
X1140D01*
X1115Y2590D01*
X990Y2715D02*
X1090Y2815D01*
X990Y2965D02*
Y2865D01*
X1090Y2965D01*
X1115D01*
X1140Y2940D01*
Y2890D01*
X1115Y2865D01*
Y3015D02*
X1140Y3040D01*
Y3090D01*
X1115Y3115D01*
X1015D01*
X990Y3090D01*
Y3040D01*
X1015Y3015D01*
X1115D01*
X990Y3165D02*
Y3215D01*
Y3190D01*
X1140D01*
X1115Y3165D01*
X1140Y3390D02*
Y3290D01*
X1065D01*
X1090Y3340D01*
Y3365D01*
X1065Y3390D01*
X1015D01*
X990Y3365D01*
Y3315D01*
X1015Y3290D01*
X1140Y3590D02*
X1040D01*
X990Y3640D01*
X1040Y3690D01*
X1140D01*
X990Y3889D02*
Y3939D01*
Y3914D01*
X1140D01*
X1115Y3889D01*
X990Y4014D02*
X1015D01*
Y4039D01*
X990D01*
Y4014D01*
X1115Y4139D02*
X1140Y4164D01*
Y4214D01*
X1115Y4239D01*
X1015D01*
X990Y4214D01*
Y4164D01*
X1015Y4139D01*
X1115D01*
X1165Y1160D02*
X1190Y1135D01*
Y1085D01*
X1165Y1060D01*
X1065D01*
X1040Y1085D01*
Y1135D01*
X1065Y1160D01*
X1115D01*
Y1110D01*
X1040Y1210D02*
X1190D01*
X1040Y1310D01*
X1190D01*
Y1360D02*
X1040D01*
Y1435D01*
X1065Y1460D01*
X1165D01*
X1190Y1435D01*
Y1360D01*
X2665Y1290D02*
Y1190D01*
X2615Y1140D01*
X2565Y1190D01*
Y1290D01*
X2515D02*
Y1140D01*
X2440D01*
X2415Y1165D01*
Y1265D01*
X2440Y1290D01*
X2515D01*
X2365D02*
Y1140D01*
X2290D01*
X2265Y1165D01*
Y1265D01*
X2290Y1290D01*
X2365D01*
X1500Y415D02*
X1525Y440D01*
X1575D01*
X1600Y415D01*
Y315D01*
X1575Y290D01*
X1525D01*
X1500Y315D01*
X1450Y440D02*
Y290D01*
Y340D01*
X1350Y440D01*
X1425Y365D01*
X1350Y290D01*
X2110Y440D02*
X2060D01*
X2085D01*
Y290D01*
X2110D01*
X2060D01*
X1910Y440D02*
X1960D01*
X1985Y415D01*
Y315D01*
X1960Y290D01*
X1910D01*
X1885Y315D01*
Y415D01*
X1910Y440D01*
M02*
