%FSLAX24Y24*%
%MOIN*%
G70*
G01*
G75*
G04 Layer_Physical_Order=1*
G04 Layer_Color=255*
%ADD10O,0.0240X0.1500*%
%ADD11C,0.0071*%
%ADD12C,0.0060*%
%ADD13C,0.0087*%
%ADD14R,0.1378X0.0315*%
%ADD15R,0.0630X0.0315*%
%ADD16R,0.0180X0.0190*%
%ADD17R,0.0190X0.0180*%
%ADD18C,0.0050*%
%ADD19C,0.0060*%
%ADD20C,0.0070*%
%ADD21C,0.0100*%
%ADD22C,0.0400*%
%ADD23C,0.0240*%
G36*
X2335Y2035D02*
X2419D01*
Y1866D01*
X2422Y1845D01*
X2430Y1825D01*
X2443Y1809D01*
X2559Y1692D01*
X2576Y1679D01*
X2596Y1671D01*
X2617Y1669D01*
X3093D01*
X3111Y1671D01*
X3127Y1624D01*
X3100Y1607D01*
X3069Y1581D01*
X3043Y1550D01*
X3022Y1516D01*
X3007Y1479D01*
X2997Y1440D01*
X2994Y1400D01*
X2997Y1360D01*
X3002Y1340D01*
X2971Y1301D01*
X2787D01*
X2121Y1967D01*
Y2035D01*
X2135D01*
Y2035D01*
X2235D01*
Y2180D01*
X2335D01*
Y2035D01*
D02*
G37*
G36*
X1338Y2543D02*
X1346Y2524D01*
X1359Y2507D01*
X1736Y2129D01*
Y1837D01*
X1739Y1816D01*
X1739Y1816D01*
X1739D01*
X1747Y1797D01*
X1760Y1780D01*
X1990Y1551D01*
X1972Y1504D01*
X1960Y1503D01*
X1921Y1493D01*
X1884Y1478D01*
X1850Y1457D01*
X1819Y1431D01*
X1793Y1400D01*
X1775Y1371D01*
X1725D01*
X1707Y1400D01*
X1681Y1431D01*
X1650Y1457D01*
X1616Y1478D01*
X1579Y1493D01*
X1550Y1500D01*
Y1250D01*
X1500D01*
Y1200D01*
X1250D01*
X1257Y1171D01*
X1272Y1134D01*
X1293Y1100D01*
X1319Y1069D01*
X1350Y1043D01*
X1379Y1025D01*
Y975D01*
X1350Y957D01*
X1319Y931D01*
X1293Y900D01*
X1272Y866D01*
X1257Y829D01*
X1247Y790D01*
X1245Y760D01*
X1195Y762D01*
Y870D01*
Y985D01*
Y1239D01*
X1198Y1239D01*
Y1261D01*
X1195Y1261D01*
Y1285D01*
X905D01*
Y985D01*
Y870D01*
Y625D01*
X1195D01*
Y738D01*
X1245Y740D01*
X1247Y710D01*
X1257Y671D01*
X1272Y634D01*
X1293Y600D01*
X1319Y569D01*
X1350Y543D01*
X1384Y522D01*
X1421Y507D01*
X1460Y497D01*
X1482Y496D01*
X1480Y446D01*
X1195D01*
Y515D01*
X555D01*
Y411D01*
X552Y411D01*
Y389D01*
X555Y388D01*
Y215D01*
X1195D01*
Y284D01*
X2292D01*
Y100D01*
X305D01*
X300Y150D01*
X329Y157D01*
X366Y172D01*
X400Y193D01*
X431Y219D01*
X457Y250D01*
X478Y284D01*
X493Y321D01*
X500Y350D01*
X250D01*
Y400D01*
X200D01*
Y650D01*
X171Y643D01*
X142Y631D01*
X100Y659D01*
Y1141D01*
X142Y1169D01*
X171Y1157D01*
X210Y1147D01*
X250Y1144D01*
X290Y1147D01*
X329Y1157D01*
X366Y1172D01*
X400Y1193D01*
X431Y1219D01*
X457Y1250D01*
X478Y1284D01*
X493Y1321D01*
X503Y1360D01*
X505Y1395D01*
X555D01*
Y1395D01*
X845D01*
Y1400D01*
X905D01*
Y1395D01*
X1195D01*
Y1576D01*
X1267Y1648D01*
X1280Y1665D01*
X1288Y1684D01*
X1288Y1687D01*
X1291Y1705D01*
Y1965D01*
X1345D01*
Y2110D01*
Y2255D01*
X1291D01*
Y2410D01*
X1288Y2431D01*
X1280Y2450D01*
X1267Y2467D01*
X1227Y2507D01*
X1246Y2553D01*
X1337D01*
X1338Y2543D01*
D02*
G37*
G36*
X3400Y3141D02*
Y2659D01*
X3358Y2631D01*
X3329Y2643D01*
X3290Y2653D01*
X3250Y2656D01*
X3210Y2653D01*
X3171Y2643D01*
X3134Y2628D01*
X3100Y2607D01*
X3069Y2581D01*
X3043Y2550D01*
X3022Y2516D01*
X3007Y2479D01*
X2997Y2440D01*
X2994Y2400D01*
X2997Y2360D01*
X3007Y2321D01*
X3022Y2284D01*
X3043Y2250D01*
X3069Y2219D01*
X3100Y2193D01*
X3134Y2172D01*
X3169Y2157D01*
Y1940D01*
X3059Y1830D01*
X2872D01*
X2850Y1875D01*
X2856Y1882D01*
X2872Y1913D01*
X2882Y1946D01*
X2886Y1980D01*
X2882Y2014D01*
X2872Y2047D01*
X2856Y2078D01*
X2845Y2091D01*
Y2325D01*
X2774D01*
X2773Y2332D01*
X2765Y2351D01*
X2752Y2368D01*
X2482Y2638D01*
X2466Y2651D01*
X2446Y2659D01*
X2425Y2662D01*
X2317D01*
X2300Y2679D01*
Y2738D01*
X2958D01*
X2979Y2740D01*
X2999Y2749D01*
X3015Y2761D01*
X3015Y2761D01*
X3015Y2761D01*
X3307Y3053D01*
X3320Y3070D01*
X3328Y3089D01*
X3328Y3092D01*
X3331Y3110D01*
Y3134D01*
X3375Y3158D01*
X3400Y3141D01*
D02*
G37*
G36*
X1385Y5943D02*
X1550D01*
Y4815D01*
X1525D01*
Y4815D01*
X1491D01*
X1301Y4840D01*
Y5060D01*
X1298Y5078D01*
X1298Y5081D01*
X1290Y5100D01*
X1277Y5117D01*
X1227Y5167D01*
X1232Y5186D01*
X1236Y5220D01*
X1232Y5254D01*
X1222Y5287D01*
X1206Y5318D01*
X1184Y5344D01*
X1158Y5366D01*
X1127Y5382D01*
X1094Y5392D01*
X1060Y5396D01*
X1026Y5392D01*
X993Y5382D01*
X962Y5366D01*
X936Y5344D01*
X914Y5318D01*
X898Y5287D01*
X888Y5254D01*
X884Y5220D01*
X888Y5186D01*
X898Y5153D01*
X914Y5122D01*
X936Y5096D01*
X962Y5074D01*
X993Y5058D01*
X1026Y5048D01*
X1060Y5044D01*
X1094Y5048D01*
X1099Y5049D01*
X1139Y5019D01*
Y4873D01*
X1113Y4847D01*
X1100Y4830D01*
X1094Y4815D01*
X1015D01*
Y4670D01*
X915D01*
Y4815D01*
X842D01*
X840Y4820D01*
X827Y4837D01*
X825Y4839D01*
Y5356D01*
X822Y5377D01*
X814Y5396D01*
X811Y5400D01*
X801Y5413D01*
X331Y5883D01*
Y5990D01*
X1385D01*
Y5943D01*
D02*
G37*
G36*
X3169Y5843D02*
X2893Y5567D01*
X2880Y5550D01*
X2872Y5531D01*
X2869Y5510D01*
Y4699D01*
X2800Y4630D01*
X2787Y4613D01*
X2779Y4594D01*
X2776Y4573D01*
Y4204D01*
X2779Y4183D01*
X2787Y4163D01*
X2800Y4147D01*
X2810Y4136D01*
X2813Y4107D01*
X2806Y4080D01*
X2783Y4072D01*
X2752Y4056D01*
X2726Y4034D01*
X2704Y4008D01*
X2688Y3977D01*
X2684Y3966D01*
X2638Y3947D01*
X2627Y3952D01*
X2594Y3962D01*
X2560Y3966D01*
X2526Y3962D01*
X2493Y3952D01*
X2462Y3936D01*
X2446Y3923D01*
X2401Y3944D01*
Y4007D01*
X2450Y4055D01*
X2476Y4048D01*
X2510Y4044D01*
X2544Y4048D01*
X2577Y4058D01*
X2608Y4074D01*
X2634Y4096D01*
X2656Y4122D01*
X2672Y4153D01*
X2682Y4186D01*
X2686Y4220D01*
X2682Y4254D01*
X2672Y4287D01*
X2656Y4318D01*
X2634Y4344D01*
X2608Y4366D01*
X2577Y4382D01*
X2544Y4392D01*
X2510Y4396D01*
X2476Y4392D01*
X2443Y4382D01*
X2412Y4366D01*
X2386Y4344D01*
X2364Y4318D01*
X2348Y4287D01*
X2338Y4254D01*
X2334Y4220D01*
X2338Y4186D01*
X2341Y4175D01*
X2278Y4112D01*
X2228Y4119D01*
X2179Y4212D01*
X2179Y4215D01*
X2204Y4236D01*
X2226Y4262D01*
X2242Y4293D01*
X2252Y4326D01*
X2256Y4360D01*
X2252Y4394D01*
X2242Y4427D01*
X2226Y4458D01*
X2204Y4484D01*
X2178Y4506D01*
X2147Y4522D01*
X2114Y4532D01*
X2080Y4536D01*
X2046Y4532D01*
X2025Y4526D01*
X1987Y4559D01*
X1988Y4567D01*
X1985Y4593D01*
X1979Y4605D01*
Y4668D01*
X1950D01*
Y4692D01*
X1950D01*
Y5943D01*
X2115D01*
Y5990D01*
X3169D01*
Y5843D01*
D02*
G37*
%LPC*%
G36*
X300Y650D02*
Y450D01*
X500D01*
X493Y479D01*
X478Y516D01*
X457Y550D01*
X431Y581D01*
X400Y607D01*
X366Y628D01*
X329Y643D01*
X300Y650D01*
D02*
G37*
G36*
X845Y1285D02*
X555D01*
Y985D01*
Y861D01*
Y625D01*
X845D01*
Y861D01*
Y985D01*
Y1285D01*
D02*
G37*
G36*
X1450Y1500D02*
X1421Y1493D01*
X1384Y1478D01*
X1350Y1457D01*
X1319Y1431D01*
X1293Y1400D01*
X1272Y1366D01*
X1257Y1329D01*
X1250Y1300D01*
X1450D01*
Y1500D01*
D02*
G37*
G36*
X1545Y2255D02*
X1445D01*
Y2160D01*
X1545D01*
Y2255D01*
D02*
G37*
G36*
Y2060D02*
X1445D01*
Y1965D01*
X1545D01*
Y2060D01*
D02*
G37*
%LPD*%
D10*
X1750Y5450D02*
D03*
D11*
X944Y2818D02*
D03*
Y2976D02*
D03*
Y3133D02*
D03*
Y3291D02*
D03*
Y3448D02*
D03*
Y3606D02*
D03*
Y3763D02*
D03*
X1101Y2661D02*
D03*
Y2818D02*
D03*
Y2976D02*
D03*
Y3133D02*
D03*
Y3291D02*
D03*
Y3448D02*
D03*
Y3606D02*
D03*
Y3763D02*
D03*
Y3921D02*
D03*
X1259Y2661D02*
D03*
Y2818D02*
D03*
Y2976D02*
D03*
Y3133D02*
D03*
Y3291D02*
D03*
Y3448D02*
D03*
Y3606D02*
D03*
Y3763D02*
D03*
Y3921D02*
D03*
X1416Y2661D02*
D03*
Y2818D02*
D03*
Y2976D02*
D03*
Y3606D02*
D03*
Y3763D02*
D03*
Y3921D02*
D03*
X1574Y2661D02*
D03*
Y2818D02*
D03*
Y2976D02*
D03*
Y3606D02*
D03*
Y3763D02*
D03*
Y3921D02*
D03*
X1731Y2661D02*
D03*
Y2818D02*
D03*
Y2976D02*
D03*
Y3921D02*
D03*
X1889Y2661D02*
D03*
Y2818D02*
D03*
Y2976D02*
D03*
Y3133D02*
D03*
Y3291D02*
D03*
Y3921D02*
D03*
X2046Y2818D02*
D03*
Y2976D02*
D03*
Y3133D02*
D03*
Y3291D02*
D03*
Y3448D02*
D03*
Y3921D02*
D03*
X2204Y2818D02*
D03*
Y2976D02*
D03*
Y3133D02*
D03*
Y3291D02*
D03*
Y3448D02*
D03*
Y3606D02*
D03*
Y3763D02*
D03*
Y3921D02*
D03*
D12*
X2046Y2661D02*
D03*
D13*
X1889Y4173D02*
D03*
X1731D02*
D03*
X1889Y4567D02*
D03*
X1731Y4370D02*
D03*
Y4567D02*
D03*
D14*
X1750Y7489D02*
D03*
D15*
Y6151D02*
D03*
D16*
X700Y1545D02*
D03*
Y1135D02*
D03*
Y365D02*
D03*
Y775D02*
D03*
X1050D02*
D03*
Y365D02*
D03*
X2470D02*
D03*
Y775D02*
D03*
X2820D02*
D03*
Y365D02*
D03*
X1050Y1545D02*
D03*
Y1135D02*
D03*
D17*
X985Y2110D02*
D03*
X1395D02*
D03*
X1375Y4670D02*
D03*
X965D02*
D03*
X1375Y4330D02*
D03*
X965D02*
D03*
X2695Y2180D02*
D03*
X2285D02*
D03*
D18*
X744Y4806D02*
Y5356D01*
Y4806D02*
X770Y4780D01*
Y4180D02*
Y4780D01*
X670Y4130D02*
Y4622D01*
X539Y4753D02*
X670Y4622D01*
X539Y4753D02*
Y5136D01*
X1170Y4070D02*
Y4790D01*
Y4070D02*
X1259Y3981D01*
X1220Y4840D02*
Y5060D01*
X1170Y4790D02*
X1220Y4840D01*
X1433Y3133D02*
X1630Y3330D01*
X1748Y3448D01*
X2320Y3809D02*
Y4040D01*
X2510Y4230D01*
X3250Y5810D02*
Y6400D01*
Y4820D02*
Y5400D01*
X2376Y3606D02*
X2560Y3790D01*
X785Y4015D02*
X849D01*
X555Y4085D02*
X877Y3763D01*
X250Y3400D02*
X490D01*
X599Y3291D01*
X250Y2840D02*
X543Y3133D01*
X250Y2400D02*
Y2840D01*
X2736Y2976D02*
X2910Y3150D01*
X1630Y3330D02*
X1731Y3229D01*
X2950Y5510D02*
X3250Y5810D01*
X2950Y4666D02*
Y5510D01*
X2960Y4530D02*
X3250Y4820D01*
X2857Y4573D02*
X2950Y4666D01*
X700Y775D02*
Y1135D01*
X1050Y775D02*
Y1135D01*
X700Y365D02*
X1050D01*
X2450D01*
X985Y2110D02*
Y2702D01*
X1416Y2564D02*
X1817Y2163D01*
X700Y1545D02*
Y1759D01*
X740Y1799D01*
Y2615D01*
X610Y2900D02*
X686Y2976D01*
X250Y1400D02*
Y1880D01*
X610Y2240D01*
Y2900D01*
X2800Y775D02*
Y921D01*
X3250Y400D02*
Y690D01*
X1101Y2519D02*
X1210Y2410D01*
Y1705D02*
Y2410D01*
X1050Y1545D02*
X1210Y1705D01*
X2561Y3291D02*
X3069Y3799D01*
X2563Y3133D02*
X3185Y3755D01*
X2857Y4204D02*
Y4573D01*
Y4204D02*
X3069Y3992D01*
Y3799D02*
Y3992D01*
X2960Y4257D02*
Y4530D01*
Y4257D02*
X3185Y4032D01*
Y3755D02*
Y4032D01*
X960Y4120D02*
X1101Y3979D01*
X830Y4120D02*
X960D01*
X2470Y775D02*
X2676Y569D01*
X2776D01*
X2820Y525D01*
Y365D02*
Y525D01*
X2290Y532D02*
X2429Y394D01*
X2290Y532D02*
Y960D01*
X2000Y1250D02*
X2290Y960D01*
X1060Y5220D02*
X1220Y5060D01*
X770Y4180D02*
X830Y4120D01*
X670Y4130D02*
X785Y4015D01*
X555Y4085D02*
Y4555D01*
X290Y4820D02*
X555Y4555D01*
X250Y3820D02*
Y4400D01*
Y3820D02*
X622Y3448D01*
X250Y5850D02*
Y6400D01*
Y5850D02*
X744Y5356D01*
X1220Y592D02*
Y870D01*
X1731Y2589D02*
X2040Y2280D01*
X1574Y2576D02*
X1930Y2220D01*
X1817Y1837D02*
Y2163D01*
Y1837D02*
X2669Y985D01*
X2736D01*
X2800Y921D01*
X1930Y1883D02*
Y2220D01*
X2040Y1934D02*
Y2280D01*
X2754Y1220D02*
X3070D01*
X3250Y1400D01*
X1930Y1883D02*
X2713Y1100D01*
X2840D01*
X3250Y690D01*
X2040Y1934D02*
X2754Y1220D01*
X3250Y1907D02*
Y2400D01*
X3093Y1749D02*
X3250Y1907D01*
X2500Y1866D02*
X2617Y1749D01*
X3093D01*
X2100Y2450D02*
X2346D01*
X2500Y2296D01*
Y1866D02*
Y2296D01*
X2695Y2250D02*
Y2311D01*
X2284Y2581D02*
X2425D01*
X2695Y2311D01*
X2958Y2818D02*
X3250Y3110D01*
Y3400D01*
X600Y3757D02*
X751Y3606D01*
X877Y3763D02*
X944D01*
X751Y3606D02*
X944D01*
X622Y3448D02*
X944D01*
X599Y3291D02*
X944D01*
X543Y3133D02*
X944D01*
X686Y2976D02*
X944D01*
X740Y2615D02*
X944Y2818D01*
X985Y2702D02*
X1101Y2818D01*
Y2519D02*
Y2661D01*
X1416Y2564D02*
Y2661D01*
X1574Y2576D02*
Y2661D01*
X1731Y2589D02*
Y2661D01*
X1889D02*
X2100Y2450D01*
X2046Y2818D02*
X2284Y2581D01*
X2204Y2818D02*
X2958D01*
X2204Y2976D02*
X2736D01*
X2204Y3133D02*
X2563D01*
X2204Y3291D02*
X2561D01*
X2204Y3606D02*
X2376D01*
X2204Y3763D02*
X2274D01*
X2320Y3809D01*
X1259Y3921D02*
Y3981D01*
X1101Y3921D02*
Y3979D01*
X849Y4015D02*
X1101Y3763D01*
X1512Y3448D02*
X1630Y3330D01*
X1259Y3448D02*
X1512D01*
X1259D02*
Y3606D01*
X1101D02*
X1259D01*
Y3133D02*
X1433D01*
X1731Y2976D02*
Y3229D01*
Y2976D02*
X1889Y2818D01*
X1748Y3448D02*
X2046D01*
Y3921D01*
D19*
X1732Y4567D02*
X1750Y5450D01*
X1890Y4567D02*
X1980Y4668D01*
Y4750D02*
Y5230D01*
X1950Y4750D02*
Y5912D01*
X2090D01*
X1950Y4750D02*
X1980D01*
X2090Y5770D02*
Y5912D01*
X1550Y4843D02*
Y5912D01*
X1410D02*
X1550D01*
X1415Y4843D02*
Y5230D01*
Y4843D02*
X1550D01*
X1410Y5770D02*
Y5912D01*
X1574Y4204D02*
X1732Y4363D01*
X1373Y4067D02*
X1416Y4024D01*
X2528Y3448D02*
X2850Y3770D01*
X2080Y4140D02*
Y4360D01*
Y4140D02*
X2204Y4016D01*
X1373Y4067D02*
Y4299D01*
X1593Y4510D02*
X1732Y4371D01*
X2850Y3770D02*
Y3910D01*
X1259Y2541D02*
X1395Y2405D01*
Y2110D02*
Y2405D01*
X1375Y4670D02*
X1535Y4510D01*
X1593D01*
X1259Y2541D02*
Y2661D01*
X2204Y3448D02*
X2528D01*
X2204Y3921D02*
Y4016D01*
X1574Y3921D02*
Y4204D01*
X1416Y3921D02*
Y4024D01*
D20*
X1730Y3919D02*
Y4172D01*
X1889Y3921D02*
Y4174D01*
D21*
X965Y4330D02*
Y4670D01*
D22*
X250Y7400D02*
D03*
Y6400D02*
D03*
Y5400D02*
D03*
Y4400D02*
D03*
Y3400D02*
D03*
Y2400D02*
D03*
Y1400D02*
D03*
Y400D02*
D03*
X1500Y1250D02*
D03*
X2000D02*
D03*
X1500Y750D02*
D03*
X2000D02*
D03*
X3250Y400D02*
D03*
Y1400D02*
D03*
Y2400D02*
D03*
Y3400D02*
D03*
Y4400D02*
D03*
Y5400D02*
D03*
Y6400D02*
D03*
Y7400D02*
D03*
D23*
X2090Y5770D02*
D03*
X2085Y5230D02*
D03*
X980Y4870D02*
D03*
X1415Y5230D02*
D03*
X539Y5136D02*
D03*
X2530Y4630D02*
D03*
X1630Y3330D02*
D03*
X2080Y4360D02*
D03*
X1600Y1840D02*
D03*
X2820Y2530D02*
D03*
X1010Y5770D02*
D03*
X2510Y4220D02*
D03*
X2910Y3150D02*
D03*
X600Y3757D02*
D03*
X1410Y5770D02*
D03*
X2840Y1500D02*
D03*
X1010Y1920D02*
D03*
X1060Y5220D02*
D03*
X290Y4820D02*
D03*
X2850Y3910D02*
D03*
X2590Y5770D02*
D03*
X2560Y3790D02*
D03*
X2295Y1982D02*
D03*
X2710Y1980D02*
D03*
M02*
