%FSLAX24Y24*%
%MOIN*%
G70*
G01*
G75*
G04 Layer_Color=8388736*
%ADD10O,0.0240X0.1500*%
%ADD11C,0.0071*%
%ADD12C,0.0060*%
%ADD13C,0.0087*%
%ADD14R,0.1378X0.0315*%
%ADD15R,0.0630X0.0315*%
%ADD16R,0.0180X0.0190*%
%ADD17R,0.0190X0.0180*%
%ADD18C,0.0050*%
%ADD19C,0.0060*%
%ADD20C,0.0070*%
%ADD21C,0.0100*%
%ADD22C,0.0400*%
%ADD23C,0.0240*%
%ADD24R,0.0433X0.0472*%
%ADD25C,0.0120*%
%ADD26C,0.0200*%
%ADD27C,0.0079*%
%ADD28C,0.0040*%
%ADD29R,0.0150X0.0620*%
%ADD30R,0.0550X0.0130*%
%ADD31R,0.0160X0.0300*%
%ADD32R,0.0500X0.0160*%
%ADD33R,0.0699X0.0310*%
%ADD34C,0.0127*%
%ADD35C,0.0116*%
%ADD36C,0.0127*%
%ADD37R,0.1438X0.0375*%
%ADD38R,0.0240X0.0250*%
%ADD39R,0.0250X0.0240*%
%ADD40C,0.0460*%
D31*
X3313Y2836D02*
D03*
D32*
X1750Y180D02*
D03*
X2500Y5480D02*
D03*
X1100D02*
D03*
D33*
X1750Y6185D02*
D03*
D34*
X944Y2818D02*
D03*
Y2976D02*
D03*
Y3133D02*
D03*
Y3291D02*
D03*
Y3448D02*
D03*
Y3606D02*
D03*
Y3763D02*
D03*
X1101Y2661D02*
D03*
Y2818D02*
D03*
Y2976D02*
D03*
Y3133D02*
D03*
Y3291D02*
D03*
Y3448D02*
D03*
Y3606D02*
D03*
Y3763D02*
D03*
Y3921D02*
D03*
X1259Y2661D02*
D03*
Y2818D02*
D03*
Y2976D02*
D03*
Y3133D02*
D03*
Y3291D02*
D03*
Y3448D02*
D03*
Y3606D02*
D03*
Y3763D02*
D03*
Y3921D02*
D03*
X1416Y2661D02*
D03*
Y2818D02*
D03*
Y2976D02*
D03*
Y3606D02*
D03*
Y3763D02*
D03*
Y3921D02*
D03*
X1574Y2661D02*
D03*
Y2818D02*
D03*
Y2976D02*
D03*
Y3606D02*
D03*
Y3763D02*
D03*
Y3921D02*
D03*
X1731Y2661D02*
D03*
Y2818D02*
D03*
Y2976D02*
D03*
Y3921D02*
D03*
X1889Y2661D02*
D03*
Y2818D02*
D03*
Y2976D02*
D03*
Y3133D02*
D03*
Y3291D02*
D03*
Y3921D02*
D03*
X2046Y2818D02*
D03*
Y2976D02*
D03*
Y3133D02*
D03*
Y3291D02*
D03*
Y3448D02*
D03*
Y3921D02*
D03*
X2204Y2818D02*
D03*
Y2976D02*
D03*
Y3133D02*
D03*
Y3291D02*
D03*
Y3448D02*
D03*
Y3606D02*
D03*
Y3763D02*
D03*
Y3921D02*
D03*
D35*
X2046Y2661D02*
D03*
D36*
X1889Y4173D02*
D03*
X1731D02*
D03*
X1889Y4567D02*
D03*
X1731Y4370D02*
D03*
Y4567D02*
D03*
D37*
X1750Y7489D02*
D03*
D38*
X700Y1545D02*
D03*
Y1135D02*
D03*
Y365D02*
D03*
Y775D02*
D03*
X1050D02*
D03*
Y365D02*
D03*
X2470D02*
D03*
Y775D02*
D03*
X2820D02*
D03*
Y365D02*
D03*
X1050Y1545D02*
D03*
Y1135D02*
D03*
D39*
X985Y2110D02*
D03*
X1395D02*
D03*
X1375Y4670D02*
D03*
X965D02*
D03*
X1375Y4330D02*
D03*
X965D02*
D03*
X2695Y2180D02*
D03*
X2285D02*
D03*
D40*
X250Y7400D02*
D03*
Y6400D02*
D03*
Y5400D02*
D03*
Y4400D02*
D03*
Y3400D02*
D03*
Y2400D02*
D03*
Y1400D02*
D03*
Y400D02*
D03*
X1500Y1250D02*
D03*
X2000D02*
D03*
X1500Y750D02*
D03*
X2000D02*
D03*
X3250Y400D02*
D03*
Y1400D02*
D03*
Y2400D02*
D03*
Y3400D02*
D03*
Y4400D02*
D03*
Y5400D02*
D03*
Y6400D02*
D03*
Y7400D02*
D03*
M02*
